<?xml version="1.0" encoding="UTF-8"?>
<!DOCTYPE svg PUBLIC "-//W3C//DTD SVG 1.1//EN" "http://www.w3.org/Graphics/SVG/1.1/DTD/svg11.dtd">
<!-- Creator: CorelDRAW X8 -->
<svg xmlns="http://www.w3.org/2000/svg" xml:space="preserve" width="2712px" height="406px" version="1.1" style="shape-rendering:geometricPrecision; text-rendering:geometricPrecision; image-rendering:optimizeQuality; fill-rule:evenodd; clip-rule:evenodd"
viewBox="0 0 2414 361"
 xmlns:xlink="http://www.w3.org/1999/xlink">
 <defs>
  <style type="text/css">
   <![CDATA[
    .fil0 {fill:#009688}
    .fil1 {fill:black;fill-rule:nonzero}
   ]]>
  </style>
 </defs>
 <g id="Слой_x0020_1">
  <metadata id="CorelCorpID_0Corel-Layer"/>
  <path class="fil0" d="M197 12l-4 88 57 27 56 -31 -15 -96 -94 12zm-78 13l32 70 -42 40 -70 -27 -11 -80 91 -3zm-119 214l28 -83 73 5 26 62 -62 48 -65 -32zm209 -12l-51 1 -34 83 71 50 57 -61 -43 -73zm126 -82l-97 29 32 73 33 20 52 -49 -20 -73zm-207 28l20 -55 69 12 13 62 -53 22 -49 -41zm75 -2c5,-15 -7,-21 -17,-26 -12,-4 -22,5 -27,15 4,8 4,19 15,23 12,1 22,-2 29,-12z"/>
  <path class="fil1" d="M624 215l20 0 0 47c-7,4 -15,6 -25,9 -10,2 -20,3 -30,3 -19,0 -35,-2 -50,-6 -15,-5 -27,-11 -37,-20 -10,-9 -18,-20 -23,-34 -6,-14 -9,-30 -9,-49 0,-20 3,-36 9,-50 6,-14 15,-25 25,-34 10,-8 22,-15 35,-19 14,-4 28,-6 43,-6 7,0 13,1 19,1 6,1 11,1 16,2 5,1 9,3 13,4 4,1 8,3 12,4l0 52 -19 0 0 -32 -5 -6c-2,-1 -5,-2 -10,-3 -5,-2 -12,-2 -23,-2 -11,0 -21,1 -30,5 -10,3 -18,8 -25,16 -7,7 -12,16 -16,27 -4,12 -6,25 -6,41 0,29 7,51 22,66 14,16 35,24 61,24 7,0 13,-1 18,-2 5,-1 9,-3 11,-4l4 -6 0 -28zm45 -23c0,-14 2,-25 5,-36 4,-10 10,-18 17,-25 6,-7 15,-12 25,-16 10,-4 21,-5 33,-5 14,0 26,1 36,5 10,4 18,10 24,17 7,7 12,16 15,26 3,10 4,21 4,34 0,13 -2,24 -5,35 -4,10 -9,18 -16,25 -7,7 -15,12 -25,16 -10,3 -21,5 -33,5 -14,0 -26,-2 -36,-6 -10,-3 -18,-9 -25,-16 -6,-7 -11,-16 -14,-26 -4,-10 -5,-21 -5,-33zm33 0c0,9 1,18 3,26 2,8 5,16 9,22 4,6 9,10 16,14 7,3 15,5 24,5 12,0 22,-5 29,-16 8,-11 12,-28 12,-51 0,-10 -1,-19 -3,-27 -2,-9 -5,-16 -9,-22 -4,-6 -9,-11 -15,-14 -6,-4 -13,-5 -22,-5 -13,0 -24,5 -32,16 -8,11 -12,28 -12,52zm300 138l-75 0 0 -15 23 0 0 -53c-4,3 -8,6 -13,8 -5,3 -10,4 -17,4 -9,0 -18,-2 -26,-5 -8,-3 -15,-8 -20,-14 -6,-6 -11,-14 -14,-23 -3,-10 -4,-22 -4,-35 0,-15 1,-28 4,-39 4,-11 8,-20 14,-27 6,-7 13,-13 22,-16 8,-4 17,-5 28,-5 5,0 11,1 15,3 5,2 9,4 11,6l0 -59 -26 0 0 -15 56 0 0 76c3,-3 8,-6 13,-8 6,-2 12,-3 18,-3 9,0 18,1 26,4 7,3 14,7 20,13 5,6 9,14 12,23 3,9 5,20 5,32 0,16 -2,30 -5,41 -4,12 -8,21 -14,29 -6,7 -13,13 -21,16 -9,4 -18,6 -27,6 -6,0 -11,-1 -16,-3 -5,-2 -8,-4 -11,-7l0 51 22 0 0 15zm-74 -73c4,0 8,-1 12,-2 4,-1 7,-3 10,-5l0 -118c-3,-2 -6,-3 -9,-4 -3,-1 -8,-2 -13,-2 -6,0 -11,1 -16,4 -4,2 -8,5 -12,10 -3,5 -6,11 -8,18 -2,7 -3,16 -3,27 0,14 1,25 3,35 2,9 5,16 8,22 4,5 8,9 13,11 5,3 10,4 15,4zm74 -131c-4,0 -8,1 -12,2 -4,1 -8,2 -11,5l0 118c3,2 6,4 10,5 3,0 7,1 12,1 5,0 10,-1 15,-4 5,-2 9,-5 12,-10 4,-5 7,-12 9,-20 2,-8 3,-18 3,-30 0,-13 -1,-23 -2,-32 -2,-9 -4,-15 -7,-21 -4,-5 -8,-8 -12,-10 -5,-3 -10,-4 -17,-4zm202 144l-76 0 0 -15 22 0 0 -127 -31 0 -6 6 0 31 -19 0 0 -52 143 0 0 52 -19 0 0 -31 -6 -6 -31 0 0 127 23 0 0 15zm191 -122c4,0 9,-1 15,-1 6,-1 11,-1 16,-1 11,0 21,1 31,3 10,2 19,6 27,10 8,5 14,12 19,19 4,8 7,18 7,30 0,11 -3,20 -7,28 -5,8 -12,15 -20,20 -8,5 -18,9 -28,11 -11,3 -22,4 -34,4 -2,0 -4,0 -7,0 -4,0 -8,0 -12,0 -4,0 -9,0 -13,-1 -5,0 -9,0 -12,0l-43 0 0 -17 27 0 0 -176 -27 0 0 -17 161 0 0 55 -21 0 0 -32 -6 -6 -73 0 0 71zm23 15c-5,0 -10,0 -13,0 -4,0 -7,1 -10,1l0 89c1,0 3,0 5,1 2,0 4,0 7,0 2,0 4,0 7,0 2,0 4,0 5,0 8,0 15,-1 21,-2 7,-2 12,-5 17,-9 5,-4 8,-9 11,-15 3,-5 4,-12 4,-21 0,-14 -4,-25 -13,-33 -9,-7 -23,-11 -41,-11zm119 -50l72 0 0 15 -20 0 0 92 -1 33 1 0 12 -27 59 -113 59 0 0 15 -22 0 0 127 22 0 0 15 -72 0 0 -15 20 0 0 -96 3 -31 -2 0 -12 30 -61 112 -58 0 0 -15 22 0 0 -127 -22 0 0 -15zm268 143c6,0 11,0 15,-2 5,-2 9,-4 12,-7 3,-3 5,-7 6,-10 2,-4 3,-8 3,-12 0,-9 -3,-15 -7,-19 -5,-4 -11,-6 -19,-7l-32 0 0 -17 34 0c2,-1 4,-2 6,-4 2,-1 4,-4 6,-6 2,-3 4,-6 5,-9 1,-3 2,-7 2,-11 0,-10 -3,-17 -9,-20 -6,-4 -13,-6 -23,-6 -5,0 -10,1 -13,1 -4,0 -7,1 -8,1l-5 7 0 26 -20 0 0 -41c5,-2 11,-4 19,-7 7,-2 18,-3 33,-3 18,0 32,2 42,8 10,6 15,15 15,27 0,5 -1,10 -3,14 -2,4 -5,8 -9,12 -3,3 -7,6 -12,8 -4,2 -8,4 -13,5 6,1 12,2 17,4 6,2 10,4 14,8 4,3 7,7 10,11 2,5 3,10 3,16 0,9 -1,16 -5,22 -3,6 -8,12 -14,16 -6,4 -13,7 -21,9 -9,2 -18,3 -28,3 -12,0 -22,-2 -31,-5 -9,-4 -16,-8 -22,-14l0 -30 19 0 0 21 5 6c2,1 6,3 10,4 5,1 11,1 18,1zm173 14l-73 0 0 -15 22 0 0 -127 -22 0 0 -15 73 0 0 15 -20 0 0 54 74 0 0 -54 -20 0 0 -15 74 0 0 15 -22 0 0 127 22 0 0 15 -74 0 0 -15 20 0 0 -57 -74 0 0 57 20 0 0 15zm271 -20c-5,7 -12,13 -22,17 -10,4 -21,7 -33,7 -14,0 -25,-2 -35,-6 -11,-4 -19,-10 -26,-17 -7,-7 -12,-16 -16,-26 -3,-10 -5,-21 -5,-33 0,-27 7,-48 20,-62 14,-14 33,-20 57,-20 8,0 16,1 24,3 8,2 15,5 21,9 6,5 10,11 14,19 4,7 6,17 6,28 0,3 0,7 -1,11 0,4 -1,8 -2,12l-105 0c0,9 1,17 3,24 3,7 6,13 11,19 5,5 11,9 18,12 7,3 15,4 25,4 8,0 15,-1 22,-4 7,-2 12,-5 16,-9l8 12zm-62 -126c-6,0 -11,1 -16,2 -5,2 -9,5 -12,9 -4,5 -6,10 -8,17 -2,7 -4,16 -4,26l72 0c1,-2 1,-4 1,-6 0,-2 0,-3 0,-5 0,-13 -3,-24 -8,-32 -5,-7 -13,-11 -25,-11zm227 126c-5,6 -11,11 -20,16 -9,5 -20,8 -33,8 -13,0 -24,-2 -34,-6 -10,-4 -19,-10 -25,-17 -7,-7 -12,-16 -15,-26 -3,-10 -5,-21 -5,-33 0,-27 7,-47 21,-61 15,-14 34,-21 58,-21 11,0 20,0 27,2 8,1 14,3 20,6l0 39 -27 0 0 -28c-3,-2 -9,-3 -18,-3 -8,0 -14,1 -20,4 -6,2 -11,5 -15,10 -4,5 -7,12 -9,20 -2,9 -3,19 -3,31 0,8 1,16 3,23 2,7 6,14 10,19 5,6 10,10 17,13 7,3 15,5 24,5 4,0 9,0 12,-1 4,-1 7,-3 10,-4 3,-1 6,-2 8,-3 2,-2 4,-3 6,-5l8 12z"/>
 </g>
</svg>
