<?xml version="1.0" encoding="UTF-8"?>
<!DOCTYPE svg PUBLIC "-//W3C//DTD SVG 1.1//EN" "http://www.w3.org/Graphics/SVG/1.1/DTD/svg11.dtd">
<!-- Creator: CorelDRAW X8 -->
<svg xmlns="http://www.w3.org/2000/svg" xml:space="preserve" width="964px" height="240px" version="1.1" style="shape-rendering:geometricPrecision; text-rendering:geometricPrecision; image-rendering:optimizeQuality; fill-rule:evenodd; clip-rule:evenodd"
viewBox="0 0 950 237"
 xmlns:xlink="http://www.w3.org/1999/xlink">
 <defs>
  <style type="text/css">
   <![CDATA[
    .fil0 {fill:white}
    .fil1 {fill:white;fill-rule:nonzero}
   ]]>
  </style>
 </defs>
 <g id="Слой_x0020_1">
  <metadata id="CorelCorpID_0Corel-Layer"/>
  <path class="fil0" d="M130 8l-3 57 37 18 37 -20 -10 -63 -61 8zm-52 8l21 46 -28 27 -46 -18 -7 -52 60 -3zm-78 141l18 -55 49 4 17 40 -41 32 -43 -21zm137 -8l-33 1 -23 54 47 33 38 -40 -29 -48zm83 -54l-64 19 21 48 22 13 34 -32 -13 -48zm-136 19l13 -36 46 8 8 40 -35 15 -32 -27zm49 -2c3,-10 -4,-14 -11,-17 -8,-2 -14,3 -18,10 3,5 3,13 10,15 8,1 15,-1 19,-8z"/>
  <path class="fil1" d="M302 168l3 4c2,1 5,3 9,4 4,1 8,1 13,1 4,0 8,0 12,-1 3,-1 6,-2 9,-4 3,-2 5,-4 7,-7 1,-3 2,-6 2,-10 0,-5 -2,-9 -5,-12 -3,-4 -7,-6 -12,-9 -5,-3 -11,-5 -16,-7 -6,-3 -12,-6 -17,-9 -4,-3 -9,-7 -12,-12 -3,-4 -5,-10 -5,-17 0,-10 4,-18 12,-24 8,-6 18,-9 31,-9 9,0 16,1 22,2 6,1 11,2 15,4l0 31 -11 0 0 -19 -3 -5c-2,-1 -6,-1 -10,-2 -4,0 -9,-1 -13,-1 -7,0 -13,2 -17,5 -4,4 -6,8 -6,14 0,5 1,10 5,13 3,3 7,6 12,9 5,2 11,5 16,8 6,2 12,5 16,8 5,3 10,7 13,12 3,4 5,10 5,16 0,12 -5,21 -14,27 -9,6 -21,9 -37,9 -8,0 -16,0 -22,-2 -6,-2 -11,-4 -14,-6l0 -33 12 0 0 22zm93 -30c0,-8 1,-15 3,-21 3,-7 6,-12 10,-16 4,-4 9,-7 15,-9 6,-3 13,-4 20,-4 9,0 16,2 22,4 6,2 11,6 15,10 4,4 7,9 8,15 2,7 3,13 3,21 0,8 -1,15 -3,21 -2,6 -6,11 -10,15 -4,4 -9,8 -15,10 -6,2 -13,3 -20,3 -8,0 -15,-1 -21,-3 -6,-3 -11,-6 -15,-10 -4,-5 -7,-10 -9,-16 -2,-6 -3,-13 -3,-20zm20 0c0,6 1,11 2,16 1,5 3,9 5,13 3,3 6,6 10,8 4,3 9,4 14,4 8,0 13,-4 18,-10 5,-7 7,-17 7,-31 0,-6 -1,-11 -2,-16 -1,-5 -2,-10 -5,-13 -2,-4 -5,-7 -9,-9 -4,-2 -8,-3 -14,-3 -8,0 -14,3 -19,10 -4,6 -7,17 -7,31zm139 47l-46 0 0 -9 13 0 0 -118 -15 0 0 -9 34 0 0 127 14 0 0 9zm83 -19c-1,3 -2,6 -4,8 -1,3 -3,5 -6,7 -2,2 -5,4 -8,5 -3,1 -6,1 -10,1 -13,0 -23,-4 -30,-12 -6,-7 -10,-20 -10,-37 0,-8 1,-15 4,-21 2,-6 5,-12 9,-16 4,-4 9,-7 15,-9 6,-3 12,-4 19,-4 3,0 5,0 7,1 2,0 3,0 5,0 1,0 3,1 4,1 2,0 3,1 5,1l0 -33 -15 0 0 -9 34 0 0 127 13 0 0 9 -30 0 -2 -19 0 0zm-24 9c7,0 12,-2 16,-5 4,-4 7,-9 8,-16l0 -54c-2,-1 -5,-2 -8,-2 -3,-1 -7,-1 -12,-1 -4,0 -8,1 -12,3 -3,2 -6,4 -8,8 -3,4 -5,8 -6,13 -1,5 -2,11 -2,17 0,5 1,10 2,15 1,4 2,8 4,11 2,4 5,6 8,8 3,2 6,3 10,3zm146 -15c0,3 0,6 0,9 0,2 0,5 0,7l13 0 0 9 -29 0 -2 -17 -1 0c-1,2 -2,5 -3,7 -2,2 -4,4 -7,6 -2,2 -5,4 -8,5 -4,1 -8,1 -12,1 -4,0 -8,0 -11,-2 -3,-1 -6,-2 -9,-5 -2,-2 -4,-4 -6,-7 -1,-4 -2,-7 -2,-11 0,-6 1,-11 4,-15 2,-3 6,-7 11,-9 5,-2 11,-4 18,-5 7,-1 16,-1 25,-1 0,-2 1,-4 1,-6 0,-1 0,-3 0,-5 0,-7 -2,-13 -4,-17 -3,-4 -7,-6 -14,-6 -2,0 -5,1 -8,1 -2,0 -5,1 -7,2l0 16 -17 0 0 -20c5,-2 10,-4 16,-6 6,-2 13,-3 21,-3 7,0 12,1 17,3 4,2 7,4 9,7 2,3 4,6 5,9 0,4 1,8 1,11 0,8 -1,15 -1,22 0,7 0,14 0,20zm-40 15c3,0 5,0 7,-1 3,-1 5,-2 7,-4 1,-1 3,-3 4,-4 1,-2 2,-4 3,-5l0 -22c-8,0 -14,1 -19,2 -5,1 -9,2 -11,4 -3,2 -5,4 -6,6 -1,2 -2,5 -2,7 0,6 2,10 5,13 3,3 7,4 12,4zm61 -85l17 0 0 -23 19 0 0 23 30 0 0 12 -30 0 0 53c0,7 1,13 3,16 1,3 5,5 9,5 4,0 7,-1 10,-2 2,-2 5,-3 7,-5l5 7c-1,1 -3,2 -5,4 -2,1 -4,2 -6,3 -3,1 -5,2 -8,3 -3,1 -6,1 -9,1 -8,0 -15,-2 -19,-6 -4,-4 -6,-11 -6,-21l0 -58 -17 0 0 -12zm158 70c0,3 0,6 0,9 0,2 0,5 0,7l12 0 0 9 -29 0 -1 -17 -1 0c-1,2 -2,5 -4,7 -1,2 -3,4 -6,6 -2,2 -5,4 -9,5 -3,1 -7,1 -11,1 -4,0 -8,0 -11,-2 -4,-1 -7,-2 -9,-5 -3,-2 -5,-4 -6,-7 -1,-4 -2,-7 -2,-11 0,-6 1,-11 4,-15 2,-3 6,-7 11,-9 4,-2 10,-4 18,-5 7,-1 15,-1 25,-1 0,-2 0,-4 0,-6 0,-1 0,-3 0,-5 0,-7 -1,-13 -3,-17 -3,-4 -7,-6 -14,-6 -2,0 -5,1 -8,1 -2,0 -5,1 -7,2l0 16 -17 0 0 -20c5,-2 10,-4 16,-6 6,-2 13,-3 21,-3 7,0 12,1 16,3 5,2 8,4 10,7 2,3 4,6 5,9 0,4 1,8 1,11 0,8 -1,15 -1,22 0,7 0,14 0,20zm-40 15c2,0 5,0 7,-1 3,-1 5,-2 6,-4 2,-1 4,-3 5,-4 1,-2 2,-4 3,-5l0 -22c-8,0 -14,1 -19,2 -5,1 -9,2 -12,4 -2,2 -4,4 -5,6 -1,2 -2,5 -2,7 0,6 2,10 5,13 2,3 6,4 12,4z"/>
 </g>
</svg>
